<?xml version="1.0" encoding="utf-8"?>
<!-- Generator: Adobe Illustrator 22.0.0, SVG Export Plug-In . SVG Version: 6.00 Build 0)  -->
<svg version="1.1" xmlns="http://www.w3.org/2000/svg" xmlns:xlink="http://www.w3.org/1999/xlink" x="0px" y="0px"
	 viewBox="0 0 824.5 936.3" style="enable-background:new 0 0 824.5 936.3;" xml:space="preserve">
<style type="text/css">
	.st0{fill:#131313;}
	.st1{fill:none;stroke:#F4B8B8;stroke-width:0.75;stroke-miterlimit:10;}
	.st2{fill:#E5A3A1;}
	.st3{fill:#FAC3C0;}
	.st4{fill:none;stroke:#131313;stroke-miterlimit:10;}
	.st5{fill:none;stroke:#F9D5D4;stroke-width:0.5;stroke-miterlimit:10;}
	.st6{fill:none;stroke:#F4B8B8;stroke-miterlimit:10;}
	.st7{fill:none;stroke:#598DDA;stroke-width:0.75;stroke-miterlimit:10;}
	.st8{fill:#3C6D9E;}
	.st9{fill:#598DDA;}
	.st10{fill:#FFFAFA;}
	.st11{fill:none;stroke:#000000;stroke-miterlimit:10;}
	.st12{fill:none;stroke:#97C8F7;stroke-width:0.5;stroke-miterlimit:10;}
	.st13{fill:none;stroke:#598DDA;stroke-miterlimit:10;}
	.st14{fill:none;stroke:#598DDA;stroke-width:0.5;stroke-miterlimit:10;}
	.st15{fill:none;stroke:#598DDA;stroke-width:0.25;stroke-miterlimit:10;}
	.st16{fill:#F4B8B8;}
	.st17{fill:#F9D5D4;}
	.st18{fill:#97C8F7;}
</style>
<g id="Calque_2">
</g>
<g id="Calque_1">
	<g>
		<path class="st16" d="M479.1,582.8c-54.3,0-184.3-10.6-217-108.8l-0.5-1.5l1.5-0.5c0.7-0.2,74.2-25,90.3-53.2
			c17.1-29.9,20.9-47.1,24.7-70c6.3-37.6,6.3-64.3,0.2-73.5c-1.6-2.4-3.9-5.3-6.5-8.7c-10.7-13.8-27-34.7-27-58.5
			c0-15.9,2.4-24.8,7.8-29.1c5.3-4.1,12.9-2.9,19-1.4c8.1,2,12.5,4.1,14.9,5.9c0.6-7.2,2.4-23.6,7-42.1
			c5.7-22.9,17.1-53.9,38.9-71.3c39-31.2,77.2-46.4,104.9-41.8c37.2,6.2,86.2,20.7,108.8,54.6c22.2,33.3,5.9,110.3,1.3,129.6
			c5.6-4,16.5-10.9,24.7-9.8c3.1,0.4,5.5,2,7.2,4.5c9,13.5,2.2,33.6-4.1,43.2c-17.1,25.6-34.1,33.7-54.4,37.9
			c-3.5,4-33.2,38.1-40.8,57.2c-2.3,5.8-5.6,10.3-9,15.1c-8.8,12.3-19.8,27.6-19.9,75.2c1.5,3.5,18.6,41.1,61,52.7
			c11.6,3.2,13.2,10.1,12.5,15.3C621,531.3,542.6,582.8,479.1,582.8z M265.5,474.4c32.9,95,160.2,105.3,213.6,105.3
			c62.2,0,138.9-49.7,142.5-76.2c0.8-5.8-2.7-9.9-10.2-11.9c-45.8-12.5-63-54.4-63.2-54.8l-0.1-0.6c0-48.8,11.4-64.6,20.5-77.3
			c3.3-4.6,6.5-9,8.6-14.5c8.3-20.7,40.4-57,41.7-58.5l0.3-0.4l0.5-0.1c19.7-3.9,36.3-11.7,52.9-36.6c6.4-9.5,11.9-28.2,4.1-39.7
			c-1.2-1.8-2.9-2.9-5.1-3.2c-9.9-1.5-25.6,11.7-25.8,11.8l-3.7,3.1l1.2-4.7c0.2-0.9,24.4-95.1,0.2-131.4
			c-22-32.9-70.2-47.1-106.7-53.2c-26.8-4.5-64.1,10.5-102.4,41.1c-40.4,32.4-45,114.1-45,114.9l-3.1-0.1c0,0,0,0,0,0
			c-0.1,0-1.5-3.3-15.4-6.8c-7.9-2-13-1.7-16.3,0.9c-4.5,3.5-6.7,12-6.7,26.6c0,22.7,15.8,43.1,26.3,56.6c2.7,3.4,4.9,6.4,6.6,8.9
			c9,13.4,4,53.2,0.2,75.7c-3.9,23.1-7.7,40.6-25.1,71C340.5,447.6,276.4,470.6,265.5,474.4z"/>
		<path class="st2" d="M649.1,216.4c0,0-57.9,145.1-93.3,160.6c-35.3,15.5-50.7,36.3-74.6,36.3s-67.3-22.8-78.8-76.7
			c-11.5-53.9-21.7-44.6-22.8-62.2c-1.1-17.6,4.5-69.4,8.3-87.1c3.8-17.7,12.7,5.2,27.2,29s123.4,54.9,158.6,39.4
			S649.1,216.4,649.1,216.4z"/>
		<path class="st3" d="M0,936.3c0,0,21.2-194.4,42-240c20.7-45.6,59.9-189.8,72.4-202.2s29-24.9,45.6-33.2s41.5-4.1,58-12.4
			s64.8-13,77.2-13s38.9-3.6,47.1-3.6c8.3,0-24.9,12.4-24.9,24.9s20.7,45.6,33.2,49.7c12.4,4.1,58,41.5,99.5,37.3
			c41.5-4.1,37.3,4.1,58,0c20.7-4.1,49.7-29,58-37.3c8.3-8.3,20.7-16.6,16.6-29c-1.3-4-5.4-5.4-10.7-10.1
			c-6.2-5.5-22.5-23.1-18.3-23.1c4.1,0,116.1,45.6,132.7,62.2c16.6,16.6,29,20.7,33.2,33.2c4.1,12.4,8.3,16.6,12.4,20.7
			c4.1,4.1,24.9,53.9,24.9,62.2s12.4,58,16.6,66.3c4.1,8.3,20.7,58,24.9,74.6c4.1,16.6,4.1,37.3,8.3,58
			c4.1,20.7,20.7,48.7,17.2,86.1c-2.4,26.1,0.6,28.6,0.6,28.6H0z"/>
		<rect x="168.2" y="724.2" class="st0" width="4.1" height="208.5"/>
		
			<rect x="667.6" y="761.3" transform="matrix(0.9976 -6.960637e-02 6.960637e-02 0.9976 -57.3985 48.6676)" class="st0" width="4.1" height="173.3"/>
		
			<rect x="472.9" y="568.2" transform="matrix(0.2747 -0.9615 0.9615 0.2747 -216.3329 879.7416)" class="st0" width="4.1" height="30.2"/>
		<rect x="518.5" y="581.2" class="st0" width="37.3" height="4.1"/>
		
			<rect x="357" y="796.8" transform="matrix(0.7071 -0.7071 0.7071 0.7071 -439.7078 536.128)" class="st0" width="140.7" height="4.1"/>
		
			<rect x="360.4" y="850.7" transform="matrix(0.7071 -0.7071 0.7071 0.7071 -480.2436 546.0499)" class="st0" width="117.3" height="4.1"/>
		
			<rect x="255.4" y="715.9" transform="matrix(0.3592 -0.9332 0.9332 0.3592 -487.9094 725.3763)" class="st0" width="57.7" height="4.1"/>
		<rect x="201.4" y="852.7" class="st0" width="4.1" height="29"/>
		
			<rect x="100.2" y="881.7" transform="matrix(0.7677 -0.6408 0.6408 0.7677 -539.2845 279.8568)" class="st0" width="32.4" height="4.1"/>
		
			<rect x="142.5" y="718" transform="matrix(0.7929 -0.6093 0.6093 0.7929 -402.2127 256.6671)" class="st0" width="68" height="4.1"/>
		
			<rect x="166.5" y="732.5" transform="matrix(0.7677 -0.6408 0.6408 0.7677 -428.2524 287.6954)" class="st0" width="32.4" height="4.1"/>
		
			<rect x="655.3" y="685.9" transform="matrix(0.8575 -0.5145 0.5145 0.8575 -277.8586 441.1338)" class="st0" width="4.1" height="72.5"/>
		
			<rect x="661.5" y="627.7" transform="matrix(0.5087 -0.8609 0.8609 0.5087 -260.0145 905.7188)" class="st0" width="4.1" height="105.9"/>
		<rect x="280.1" y="475.5" transform="matrix(0.8 -0.6 0.6 0.8 -241.2852 268.5724)" class="st0" width="4.1" height="41.5"/>
		
			<rect x="426.3" y="302.3" transform="matrix(0.8779 -0.4789 0.4789 0.8779 -105.0402 244.7075)" class="st17" width="2.1" height="51.9"/>
		<polygon class="st17" points="452.4,355.3 445.8,335.5 447.8,334.9 454.4,354.6 		"/>
		
			<rect x="358.7" y="423.7" transform="matrix(0.3518 -0.9361 0.9361 0.3518 -143.0314 644.934)" class="st16" width="70.8" height="4.1"/>
		
			<rect x="514.4" y="210" transform="matrix(0.1414 -0.9899 0.9899 0.1414 220.9802 704.155)" class="st16" width="4.1" height="29.3"/>
		
			<rect x="589" y="152" transform="matrix(0.1414 -0.9899 0.9899 0.1414 342.5013 728.1949)" class="st16" width="4.1" height="29.3"/>
		
			<rect x="595.1" y="156.2" transform="matrix(0.1553 -0.9879 0.9879 0.1553 329.5363 739.4141)" class="st16" width="4.1" height="41.7"/>
		
			<rect x="499.3" y="287.6" transform="matrix(0.1134 -0.9935 0.9935 0.1134 148.4994 760.3279)" class="st17" width="2.1" height="18.8"/>
		
			<rect x="474.6" y="137.2" transform="matrix(0.1553 -0.9879 0.9879 0.1553 246.4632 604.3576)" class="st16" width="4.1" height="41.7"/>
		
			<rect x="481.2" y="135.4" transform="matrix(0.1414 -0.9899 0.9899 0.1414 266.3758 607.2571)" class="st16" width="4.1" height="29.3"/>
		<polygon class="st0" points="522.8,291.1 476.7,282.7 477.4,278.6 522.6,286.8 537.1,282.8 538.2,286.8 		"/>
		
			<rect x="497.6" y="158.4" transform="matrix(9.969727e-02 -0.995 0.995 9.969727e-02 325.8524 680.9843)" class="st16" width="83.3" height="4.1"/>
		<path class="st2" d="M475,44.1c0,0,99.5-88.8,174.1-14.2s0,186.5,0,186.5s0-145.1-53.9-153.4C541.3,54.7,475,44.1,475,44.1z"/>
		<path class="st2" d="M475,42.3c0,0-62.2-16.6-78.8,8.3s-8.3,136.8-8.3,136.8S404.5,79.6,475,42.3z"/>
		<polygon class="st16" points="451.3,131.1 449,127.6 474.4,110.7 516.4,110.7 516.4,114.8 475.6,114.8 		"/>
		<polygon class="st16" points="624.4,144.8 616.6,129.1 563.8,121 564.4,116.9 619.4,125.4 628.1,142.9 		"/>
		<polygon class="st17" points="535.2,366.2 533.4,365 574.9,304.5 576.6,305.7 		"/>
		<polygon class="st17" points="417.2,280.8 411,247 413,246.6 419.2,280.5 		"/>
		
			<rect x="380.4" y="455.8" transform="matrix(0.3127 -0.9498 0.9498 0.3127 -159.7148 695.0071)" class="st16" width="40" height="4.1"/>
	</g>
</g>
</svg>
