<?xml version="1.0" encoding="utf-8"?>
<!-- Generator: Adobe Illustrator 22.0.0, SVG Export Plug-In . SVG Version: 6.00 Build 0)  -->
<svg version="1.1" xmlns="http://www.w3.org/2000/svg" xmlns:xlink="http://www.w3.org/1999/xlink" x="0px" y="0px"
	 viewBox="0 0 700.9 989.4" style="enable-background:new 0 0 700.9 989.4;" xml:space="preserve">
<style type="text/css">
	.st0{fill:#131313;}
	.st1{fill:none;stroke:#F4B8B8;stroke-width:0.75;stroke-miterlimit:10;}
	.st2{fill:#E5A3A1;}
	.st3{fill:#FAC3C0;}
	.st4{fill:none;stroke:#131313;stroke-miterlimit:10;}
	.st5{fill:none;stroke:#F9D5D4;stroke-width:0.5;stroke-miterlimit:10;}
	.st6{fill:none;stroke:#F4B8B8;stroke-miterlimit:10;}
	.st7{fill:none;stroke:#598DDA;stroke-width:0.75;stroke-miterlimit:10;}
	.st8{fill:#3C6D9E;}
	.st9{fill:#598DDA;}
	.st10{fill:#FFFAFA;}
	.st11{fill:none;stroke:#000000;stroke-miterlimit:10;}
	.st12{fill:none;stroke:#97C8F7;stroke-width:0.5;stroke-miterlimit:10;}
	.st13{fill:none;stroke:#598DDA;stroke-miterlimit:10;}
	.st14{fill:none;stroke:#598DDA;stroke-width:0.5;stroke-miterlimit:10;}
	.st15{fill:none;stroke:#598DDA;stroke-width:0.25;stroke-miterlimit:10;}
	.st16{fill:#F4B8B8;}
	.st17{fill:#F9D5D4;}
	.st18{fill:#97C8F7;}
</style>
<g id="Calque_2">
</g>
<g id="Calque_1">
	<path class="st9" d="M264.9,631.4l-0.8-0.9L162.4,518.4l71-103.7c1-4.5,13-58.3,13-72.6c0-10.8-22.1-36.2-36.7-53
		c-5.3-6-9.8-11.3-12.7-15.1l-2.4-3.1c-12.7-16.3-30.2-38.7-19.6-50c8.9-9.5,23.7-2.2,29.8,1.5c-0.9-14.8-3.8-77.1,7.9-107.4
		c14.1-36.4,31.7-69.4,90.5-73.5c60.1-4.2,71-0.7,89.9,7.7c18.9,8.4,53.4,69.5,53.4,101.6v74.2c5.8-2.1,21.1-7.1,26.9-3.7
		c1.4,0.8,2.3,2.1,2.6,3.7c1.4,9-1.7,31.8-15.8,54.4c-5.6,9-14.3,19.6-23.5,30.9c-13.4,16.4-27.2,33.4-31.7,45.6
		c-7.2,19.6,29.1,62.3,29.4,62.7l50,99.1L264.9,631.4z M166.3,518.1l99.2,109.4l214.5-111.4l-48.4-96c-1.3-1.5-37.6-44.2-29.8-65.5
		c4.6-12.6,18.7-29.8,32.2-46.5c9.1-11.2,17.8-21.8,23.3-30.6c13.7-21.9,16.7-43.7,15.4-52.3c-0.1-0.7-0.4-1.1-1-1.4
		c-4.2-2.4-18.4,1.6-26.4,4.7l-2.1,0.8v-78.7c0-30.5-33.8-90.9-51.6-98.8c-18.4-8.2-29-11.6-88.4-7.5c-57,4-74,36.1-87.8,71.6
		c-12.8,33.1-7.6,108.4-7.5,109.2l0.2,3.3l-2.7-2c-0.2-0.1-19.1-13.6-28.4-3.6c-8.8,9.4,8.4,31.4,19.8,46l2.4,3.1
		c2.9,3.8,7.4,8.9,12.6,15c16.7,19.2,37.4,43.1,37.4,55.1c0,15.2-12.6,71.2-13.2,73.6l-0.2,0.5L166.3,518.1z"/>
	<g>
		<path class="st8" d="M205.2,222.6c-0.9-16.1-3.5-76.6,7.9-105.8c13.1-33.9,29.7-68.4,89.1-72.5c59.4-4.1,70.5-0.7,89.1,7.6
			s52.5,69.1,52.5,100.2s0,76.4,0,76.4s8.2-3.2,16-4.8c2.8-34.6-2.9-86.8-7-126.9c-4.8-47-44.2-54.3-44.2-54.3S392,1.4,336.7,0
			c-55.3-1.4-93.3,42.5-93.3,42.5s-6.2-5.2-36.6,19.7c-30.4,24.9-18.7,157.1-18.7,157.1c1.1,0.2,2.2,0.4,3.3,0.6
			C194.3,220.5,199,221.4,205.2,222.6z"/>
	</g>
	<path class="st9" d="M700.9,989.4c0,0-7.4-107.4-14.3-132.3s3.6-82.2-2.6-91.9s-6.6-55.6-16.2-73.6s-8.4-59.5-12.5-74.7
		c-4.1-15.2-26.3-87.1-38-100.2c-11.7-13.1-21.4-29-22.8-33.2s-58.7-31.8-77.4-41.5s-25.6-15.9-35.2-15.9c-9.7,0-21.6-3.2-30.6-3.2
		s-19.2-2.3-19.2-2.3s-35.9,80.1-53.9,96.7c-18,16.6-35.9,31.8-35.9,31.8s-71.9-64.3-76.7-71.2c-4.8-6.9-4.8-6.9-4.8-6.9
		s-21.4-47.7-26.9-54.6c-5.5-6.9-34.5-4.1-51.1,0s-46.3,13.1-58.7,20c-12.4,6.9-52.5,29.7-60.8,34.5c-8.3,4.8-37.3,53.9-43.5,67.7
		c-6.2,13.8-17.2,93-17.9,108.2s3.5,132,4.1,147.2c0.7,15.2-7.6,112.6-5.5,127.8s11.6,67.3,11.6,67.3H700.9z"/>
	<path class="st10" d="M233.8,416.7c0,0-5.3-6.1-20.7-4.2s-27.2,3.4-27.2,3.4L283.8,607l58.5-57.9c0,0-73.8-66.8-76.7-71
		s-3.2-3.4-4.8-6.9C259.1,467.7,233.8,416.7,233.8,416.7z"/>
	<path class="st10" d="M433.6,416.9l39.7,8.3l-62,177.3l-69.1-53.2c0,0,36-30.4,41.1-37.7C388.6,504.4,429.5,425.9,433.6,416.9z"/>
	
		<rect x="135.1" y="700.4" transform="matrix(0.9963 -8.589959e-02 8.589959e-02 0.9963 -72.0945 14.9039)" width="4.1" height="289.6"/>
	<rect x="553.9" y="706.9" transform="matrix(0.9864 -0.1643 0.1643 0.9864 -131.9193 102.8504)" width="4.1" height="284.5"/>
	
		<rect x="127.4" y="678.2" transform="matrix(9.969727e-02 -0.995 0.995 9.969727e-02 -543.4533 759.8944)" width="41.6" height="4.1"/>
	<polygon points="135.7,719.1 84.5,667.3 87.5,664.3 138.6,716.2 	"/>
	<rect x="512.4" y="671.5" transform="matrix(0.6195 -0.785 0.785 0.6195 -349.4393 668.1396)" width="4.1" height="46.1"/>
	<rect x="523.1" y="673.1" transform="matrix(0.1837 -0.983 0.983 0.1837 -222.8758 1081.8612)" width="33.7" height="4.1"/>
	<rect x="330.9" y="778.1" transform="matrix(0.5915 -0.8063 0.8063 0.5915 -566.2904 624.2355)" width="4.1" height="185.7"/>
	<rect x="165.8" y="507.2" transform="matrix(0.8763 -0.4817 0.4817 0.8763 -232.8727 145.9855)" width="4.1" height="38.7"/>
	<rect x="163.5" y="543.2" transform="matrix(0.9595 -0.2818 0.2818 0.9595 -148.659 69.0213)" width="4.1" height="16.2"/>
	<rect x="543.1" y="472" transform="matrix(0.4363 -0.8998 0.8998 0.4363 -142.2652 772.0975)" width="4.1" height="55.3"/>
	<rect x="545.6" y="504.3" transform="matrix(0.7174 -0.6966 0.6966 0.7174 -209.5036 529.32)" width="4.1" height="37.2"/>
	<rect x="325.5" y="693.2" transform="matrix(0.8816 -0.4721 0.4721 0.8816 -293.782 238.0775)" width="4.1" height="22.6"/>
	<rect x="654.4" y="780.2" transform="matrix(0.9915 -0.1305 0.1305 0.9915 -98.7597 92.4786)" width="4.1" height="39.7"/>
	<rect x="381.7" y="579.9" transform="matrix(0.6606 -0.7507 0.7507 0.6606 -322.3703 492.7313)" width="4.1" height="46"/>
	<polygon class="st18" points="281.9,29.7 281.2,27.8 309.5,18.1 310.2,20.1 	"/>
	
		<rect x="313.9" y="27" transform="matrix(0.9287 -0.3707 0.3707 0.9287 12.7559 122.5079)" class="st18" width="22.3" height="2.1"/>
	<polygon class="st18" points="376.3,28.9 357.6,15.1 358.8,13.4 377.5,27.2 	"/>
	
		<rect x="428.4" y="58.2" transform="matrix(0.8321 -0.5546 0.5546 0.8321 34.296 249.587)" class="st18" width="2.1" height="19.9"/>
	
		<rect x="430.1" y="77.5" transform="matrix(0.8788 -0.4772 0.4772 0.8788 8.6825 216.7733)" class="st18" width="2.1" height="27.5"/>
	<rect x="450.5" y="170.4" class="st18" width="2.1" height="32.5"/>
	<rect x="198" y="74" transform="matrix(0.5384 -0.8427 0.8427 0.5384 34.9773 213.9662)" class="st18" width="29.5" height="2.1"/>
	<polygon class="st18" points="199.6,119.7 197.7,118.8 211.9,90.8 213.7,91.8 	"/>
	<polygon class="st18" points="194.8,165 192.8,164.8 195.5,139.2 197.6,139.4 	"/>
	
		<rect x="321.2" y="355.6" transform="matrix(3.755974e-02 -0.9993 0.9993 3.755974e-02 -57.9966 678.562)" class="st9" width="4.1" height="27.6"/>
	<rect x="318.8" y="252.8" class="st9" width="23.7" height="4.1"/>
	<polygon class="st9" points="341.8,237.6 338,160.8 340.1,160.7 343.8,237.5 	"/>
	<rect x="253.9" y="180.8" class="st9" width="48.7" height="2.1"/>
	<rect x="269.4" y="191.5" class="st9" width="19.7" height="4.1"/>
	<rect x="378.3" y="191.5" class="st9" width="19.7" height="4.1"/>
	<rect x="367.6" y="180.8" class="st9" width="45.9" height="2.1"/>
	<polygon class="st9" points="352.4,318.8 306.2,318.8 286,300.1 288.8,297.1 307.8,314.7 352.4,314.7 	"/>
	<polygon class="st9" points="259.1,286 236.7,236.1 237.7,235.7 260,285.6 	"/>
	<rect x="377.4" y="263" transform="matrix(0.3443 -0.9389 0.9389 0.3443 17.286 551.7787)" class="st9" width="52.5" height="1"/>
	<polygon class="st9" points="243.9,173 241.1,169.9 273.3,141.9 305.7,141.9 305.7,146 274.9,146 	"/>
	<polygon class="st9" points="422.4,168.7 400.2,146 364.3,146 364.3,141.9 401.9,141.9 425.4,165.8 	"/>
	
		<rect x="383.6" y="382" transform="matrix(0.9859 -0.1675 0.1675 0.9859 -64.5885 70.519)" class="st9" width="4.1" height="72.2"/>
	
		<rect x="370.3" y="423.7" transform="matrix(0.9844 -0.1757 0.1757 0.9844 -72.1023 72.3318)" class="st9" width="4.1" height="39.3"/>
	
		<rect x="323.6" y="869.7" transform="matrix(0.5174 -0.8557 0.8557 0.5174 -631.6263 723.5229)" class="st0" width="4.1" height="104.2"/>
	
		<rect x="436" y="838.1" transform="matrix(0.3609 -0.9326 0.9326 0.3609 -498.8216 952.4546)" class="st0" width="19.2" height="4.2"/>
	
		<rect x="38.9" y="825.7" transform="matrix(0.8944 -0.4472 0.4472 0.8944 -378.3904 108.6927)" class="st0" width="4.1" height="60.3"/>
	
		<rect x="31.2" y="859" transform="matrix(0.8742 -0.4856 0.4856 0.8742 -420.7358 126.2538)" class="st0" width="4.1" height="32"/>
</g>
</svg>
