<?xml version="1.0" encoding="utf-8"?>
<!-- Generator: Adobe Illustrator 22.0.0, SVG Export Plug-In . SVG Version: 6.00 Build 0)  -->
<svg version="1.1" xmlns="http://www.w3.org/2000/svg" xmlns:xlink="http://www.w3.org/1999/xlink" x="0px" y="0px"
	 viewBox="0 0 1450.8 989.4" style="enable-background:new 0 0 1450.8 989.4;" xml:space="preserve">
<style type="text/css">
	.st0{fill:#131313;}
	.st1{fill:none;stroke:#F4B8B8;stroke-width:0.75;stroke-miterlimit:10;}
	.st2{fill:#E5A3A1;}
	.st3{fill:#FAC3C0;}
	.st4{fill:none;stroke:#131313;stroke-miterlimit:10;}
	.st5{fill:none;stroke:#F9D5D4;stroke-width:0.5;stroke-miterlimit:10;}
	.st6{fill:none;stroke:#F4B8B8;stroke-miterlimit:10;}
	.st7{fill:none;stroke:#598DDA;stroke-width:0.75;stroke-miterlimit:10;}
	.st8{fill:#3C6D9E;}
	.st9{fill:#598DDA;}
	.st10{fill:#FFFAFA;}
	.st11{fill:none;stroke:#000000;stroke-miterlimit:10;}
	.st12{fill:none;stroke:#97C8F7;stroke-width:0.5;stroke-miterlimit:10;}
	.st13{fill:none;stroke:#598DDA;stroke-miterlimit:10;}
	.st14{fill:none;stroke:#598DDA;stroke-width:0.5;stroke-miterlimit:10;}
	.st15{fill:none;stroke:#598DDA;stroke-width:0.25;stroke-miterlimit:10;}
	.st16{fill:#F4B8B8;}
	.st17{fill:#F9D5D4;}
	.st18{fill:#97C8F7;}
</style>
<g id="Calque_2">
</g>
<g id="Calque_1">
	<g>
		<path class="st16" d="M519.4,637.3c-54.3,0-184.3-10.6-217-108.8l-0.5-1.5l1.5-0.5c0.7-0.2,74.2-25,90.3-53.2
			c17.1-29.9,20.9-47.1,24.7-70c6.3-37.6,6.3-64.3,0.2-73.5c-1.6-2.4-3.9-5.3-6.5-8.7c-10.7-13.8-27-34.7-27-58.5
			c0-15.9,2.4-24.8,7.8-29.1c5.3-4.1,12.9-2.9,19-1.4c8.1,2,12.5,4.1,14.9,5.9c0.6-7.2,2.4-23.6,7-42.1
			c5.7-22.9,17.1-53.9,38.9-71.3c39-31.2,77.2-46.4,104.9-41.8c37.2,6.2,86.2,20.7,108.8,54.6c22.2,33.3,5.9,110.3,1.3,129.6
			c5.6-4,16.5-10.9,24.7-9.8c3.1,0.4,5.5,2,7.2,4.5c9,13.5,2.2,33.6-4.1,43.2c-17.1,25.6-34.1,33.7-54.4,37.9
			c-3.5,4-33.2,38.1-40.8,57.2c-2.3,5.8-5.6,10.3-9,15.1c-8.8,12.3-19.8,27.6-19.9,75.2c1.5,3.5,18.6,41.1,61,52.7
			c11.6,3.2,13.2,10.1,12.5,15.3C661.3,585.8,582.9,637.3,519.4,637.3z M305.8,529c32.9,95,160.2,105.3,213.6,105.3
			c62.2,0,138.9-49.7,142.5-76.2c0.8-5.8-2.7-9.9-10.2-11.9c-45.8-12.5-63-54.4-63.2-54.8l-0.1-0.6c0-48.8,11.4-64.6,20.5-77.3
			c3.3-4.6,6.5-9,8.6-14.5c8.3-20.7,40.4-57,41.7-58.5l0.3-0.4l0.5-0.1c19.7-3.9,36.3-11.7,52.9-36.6c6.4-9.5,11.9-28.2,4.1-39.7
			c-1.2-1.8-2.9-2.9-5.1-3.2c-9.9-1.5-25.6,11.7-25.8,11.8l-3.7,3.1l1.2-4.7c0.2-0.9,24.4-95.1,0.2-131.4
			c-22-32.9-70.2-47.1-106.7-53.2c-26.8-4.5-64.1,10.5-102.4,41.1c-40.4,32.4-45,114.1-45,114.9l-3.1-0.1c0,0,0,0,0,0
			c-0.1,0-1.5-3.3-15.4-6.8c-7.9-2-13-1.7-16.3,0.9c-4.5,3.5-6.7,12-6.7,26.6c0,22.7,15.8,43.1,26.3,56.6c2.7,3.4,4.9,6.4,6.6,8.9
			c9,13.4,4,53.2,0.2,75.7c-3.9,23.1-7.7,40.6-25.1,71C380.8,502.1,316.7,525.2,305.8,529z"/>
		<path class="st2" d="M689.4,271c0,0-57.9,145.1-93.3,160.6c-35.3,15.5-50.7,36.3-74.6,36.3c-23.9,0-67.3-22.8-78.8-76.7
			s-21.7-44.6-22.8-62.2c-1.1-17.6,4.5-69.4,8.3-87.1c3.8-17.7,12.7,5.2,27.2,29c14.5,23.8,123.4,54.9,158.6,39.4
			C649.1,294.8,689.4,271,689.4,271z"/>
		<path class="st3" d="M40.3,990.9c0,0,21.2-194.4,42-240s59.9-189.8,72.4-202.2c12.4-12.4,29-24.9,45.6-33.2s41.5-4.1,58-12.4
			s64.8-13,77.2-13s38.9-3.6,47.1-3.6s-24.9,12.4-24.9,24.9s20.7,45.6,33.2,49.7c12.4,4.1,58,41.5,99.5,37.3c41.5-4.1,37.3,4.1,58,0
			c20.7-4.1,49.7-29,58-37.3s20.7-16.6,16.6-29c-1.3-4-5.4-5.4-10.7-10.1c-6.2-5.5-22.5-23.1-18.3-23.1c4.1,0,116.1,45.6,132.7,62.2
			c16.6,16.6,29,20.7,33.2,33.2c4.1,12.4,8.3,16.6,12.4,20.7c4.1,4.1,24.9,53.9,24.9,62.2s12.4,58,16.6,66.3
			c4.1,8.3,20.7,58,24.9,74.6c4.1,16.6,4.1,37.3,8.3,58c4.1,20.7,20.7,48.7,17.2,86.1c-2.4,26.1,0.6,28.6,0.6,28.6H40.3z"/>
		<rect x="208.5" y="778.8" class="st0" width="4.1" height="208.5"/>
		
			<rect x="707.8" y="815.9" transform="matrix(0.9976 -6.960637e-02 6.960637e-02 0.9976 -61.099 51.6042)" class="st0" width="4.1" height="173.3"/>
		
			<rect x="513.2" y="622.7" transform="matrix(0.2747 -0.9615 0.9615 0.2747 -239.5807 958.0558)" class="st0" width="4.1" height="30.2"/>
		<rect x="558.8" y="635.8" class="st0" width="37.3" height="4.1"/>
		
			<rect x="397.2" y="851.3" transform="matrix(0.7071 -0.7071 0.7071 0.7071 -466.4926 580.5981)" class="st0" width="140.7" height="4.1"/>
		
			<rect x="400.7" y="905.2" transform="matrix(0.7071 -0.7071 0.7071 0.7071 -507.0284 590.52)" class="st0" width="117.3" height="4.1"/>
		
			<rect x="295.7" y="770.5" transform="matrix(0.3592 -0.9332 0.9332 0.3592 -513.0193 797.9392)" class="st0" width="57.7" height="4.1"/>
		<rect x="241.7" y="907.3" class="st0" width="4.1" height="29"/>
		
			<rect x="140.5" y="936.3" transform="matrix(0.7677 -0.6408 0.6408 0.7677 -564.8918 318.3455)" class="st0" width="32.4" height="4.1"/>
		
			<rect x="182.8" y="772.6" transform="matrix(0.7929 -0.6093 0.6093 0.7929 -427.1194 292.5158)" class="st0" width="68" height="4.1"/>
		
			<rect x="206.8" y="787.1" transform="matrix(0.7677 -0.6408 0.6408 0.7677 -453.8597 326.184)" class="st0" width="32.4" height="4.1"/>
		
			<rect x="695.6" y="740.5" transform="matrix(0.8575 -0.5145 0.5145 0.8575 -300.192 469.6379)" class="st0" width="4.1" height="72.5"/>
		
			<rect x="701.8" y="682.3" transform="matrix(0.5087 -0.8609 0.8609 0.5087 -287.2007 967.2109)" class="st0" width="4.1" height="105.9"/>
		<rect x="320.4" y="530.1" transform="matrix(0.8 -0.6 0.6 0.8 -265.968 303.6585)" class="st0" width="4.1" height="41.5"/>
		
			<rect x="466.6" y="356.9" transform="matrix(0.8779 -0.4789 0.4789 0.8779 -126.2505 270.6623)" class="st17" width="2.1" height="51.9"/>
		<polygon class="st17" points="492.7,409.9 486.1,390.1 488.1,389.4 494.7,409.2 		"/>
		
			<rect x="399" y="478.2" transform="matrix(0.3518 -0.9361 0.9361 0.3518 -167.9952 718.0193)" class="st16" width="70.8" height="4.1"/>
		
			<rect x="554.7" y="264.6" transform="matrix(0.1414 -0.9899 0.9899 0.1414 201.5517 790.8881)" class="st16" width="4.1" height="29.3"/>
		
			<rect x="629.3" y="206.6" transform="matrix(0.1414 -0.9899 0.9899 0.1414 323.0727 814.928)" class="st16" width="4.1" height="29.3"/>
		
			<rect x="635.4" y="210.7" transform="matrix(0.1553 -0.9879 0.9879 0.1553 309.6615 825.3045)" class="st16" width="4.1" height="41.7"/>
		
			<rect x="539.5" y="342.1" transform="matrix(0.1134 -0.9935 0.9935 0.1134 130.0023 848.7333)" class="st17" width="2.1" height="18.8"/>
		
			<rect x="514.8" y="191.8" transform="matrix(0.1553 -0.9879 0.9879 0.1553 226.5883 690.248)" class="st16" width="4.1" height="41.7"/>
		
			<rect x="521.5" y="190" transform="matrix(0.1414 -0.9899 0.9899 0.1414 246.9472 693.9903)" class="st16" width="4.1" height="29.3"/>
		<polygon class="st0" points="563,345.6 517,337.3 517.7,333.2 562.9,341.4 577.4,337.4 578.5,341.4 		"/>
		
			<rect x="537.9" y="212.9" transform="matrix(9.969727e-02 -0.995 0.995 9.969727e-02 307.8282 770.1984)" class="st16" width="83.3" height="4.1"/>
		<path class="st2" d="M515.3,98.6c0,0,99.5-88.8,174.1-14.2s0,186.5,0,186.5s0-145.1-53.9-153.4C581.6,109.3,515.3,98.6,515.3,98.6
			z"/>
		<path class="st2" d="M515.3,96.8c0,0-62.2-16.6-78.8,8.3c-16.6,24.9-8.3,136.8-8.3,136.8S444.8,134.2,515.3,96.8z"/>
		<polygon class="st16" points="491.5,185.6 489.2,182.2 514.6,165.2 556.7,165.2 556.7,169.4 515.9,169.4 		"/>
		<polygon class="st16" points="664.7,199.3 656.9,183.7 604.1,175.6 604.7,171.5 659.7,179.9 668.4,197.5 		"/>
		<polygon class="st17" points="575.4,420.8 573.7,419.6 615.2,359.1 616.9,360.3 		"/>
		<polygon class="st17" points="457.5,335.4 451.3,301.5 453.3,301.2 459.5,335 		"/>
		
			<rect x="420.7" y="510.4" transform="matrix(0.3127 -0.9498 0.9498 0.3127 -183.856 770.7781)" class="st16" width="40" height="4.1"/>
	</g>
	<rect x="1226.5" y="771.3" transform="matrix(0.9915 -0.1305 0.1305 0.9915 -92.7066 167.0289)" width="4.1" height="39.7"/>
	<g>
		<path class="st9" d="M953.2,662l-0.8-0.9L850.7,549l71-103.7c1-4.5,13-58.3,13-72.6c0-10.8-22.1-36.2-36.7-53
			c-5.3-6-9.8-11.3-12.7-15.1l-2.4-3.1c-12.7-16.3-30.2-38.7-19.6-50c8.9-9.5,23.7-2.2,29.8,1.5c-0.9-14.8-3.8-77.1,7.9-107.4
			c14.1-36.4,31.7-69.4,90.5-73.5c60.1-4.2,71-0.7,89.9,7.7c18.9,8.4,53.4,69.5,53.4,101.6v74.2c5.8-2.1,21.1-7.1,26.9-3.7
			c1.4,0.8,2.3,2.1,2.6,3.7c1.4,9-1.7,31.8-15.8,54.4c-5.6,9-14.3,19.6-23.5,30.9c-13.4,16.4-27.2,33.4-31.7,45.6
			c-7.2,19.6,29.1,62.3,29.4,62.7l50,99.1L953.2,662z M854.6,548.7l99.2,109.4l214.5-111.4l-48.4-96c-1.3-1.5-37.6-44.2-29.8-65.5
			c4.6-12.6,18.7-29.8,32.2-46.5c9.1-11.2,17.8-21.8,23.3-30.6c13.7-21.9,16.7-43.7,15.4-52.3c-0.1-0.7-0.4-1.1-1-1.4
			c-4.2-2.4-18.4,1.6-26.4,4.7l-2.1,0.8v-78.7c0-30.5-33.8-90.9-51.6-98.8c-18.4-8.2-29-11.6-88.4-7.5c-57,4-74,36.1-87.8,71.6
			c-12.8,33.1-7.6,108.4-7.5,109.2l0.2,3.3l-2.7-2c-0.2-0.1-19.1-13.6-28.4-3.6c-8.8,9.4,8.4,31.4,19.8,46l2.4,3.1
			c2.9,3.8,7.4,8.9,12.6,15c16.7,19.2,37.4,43.1,37.4,55.1c0,15.2-12.6,71.2-13.2,73.6l-0.2,0.5L854.6,548.7z"/>
		<g>
			<path class="st8" d="M893.5,253.2c-0.9-16.1-3.5-76.6,7.9-105.8c13.1-33.9,29.7-68.4,89.1-72.5c59.4-4.1,70.5-0.7,89.1,7.6
				s52.5,69.1,52.5,100.2s0,76.4,0,76.4s8.2-3.2,16-4.8c2.8-34.6-2.9-86.8-7-126.9c-4.8-47-44.2-54.3-44.2-54.3S1080.3,32,1025,30.6
				c-55.3-1.4-93.3,42.5-93.3,42.5s-6.2-5.2-36.6,19.7c-30.4,24.9-18.7,157.1-18.7,157.1c1.1,0.2,2.2,0.4,3.3,0.6
				C882.6,251.1,887.3,252,893.5,253.2z"/>
		</g>
		<path class="st9" d="M1389.2,1020c0,0-7.4-107.4-14.3-132.3c-6.9-24.9,3.6-82.2-2.6-91.9s-6.6-55.6-16.2-73.6s-8.4-59.5-12.5-74.7
			s-26.3-87.1-38-100.2c-11.7-13.1-21.4-29-22.8-33.2c-1.4-4.1-58.7-31.8-77.4-41.5c-18.7-9.7-25.6-15.9-35.2-15.9
			c-9.7,0-21.6-3.2-30.6-3.2c-9,0-19.2-2.3-19.2-2.3s-35.9,80.1-53.9,96.7s-35.9,31.8-35.9,31.8s-71.9-64.3-76.7-71.2
			c-4.8-6.9-4.8-6.9-4.8-6.9s-21.4-47.7-26.9-54.6c-5.5-6.9-34.5-4.1-51.1,0s-46.3,13.1-58.7,20c-12.4,6.9-52.5,29.7-60.8,34.5
			c-8.3,4.8-37.3,53.9-43.5,67.7c-6.2,13.8-17.2,93-17.9,108.2s3.5,132,4.1,147.2s-7.6,112.6-5.5,127.8s11.6,67.3,11.6,67.3H1389.2z
			"/>
		<path class="st10" d="M922.1,447.3c0,0-5.3-6.1-20.7-4.2s-27.2,3.4-27.2,3.4L972,637.6l58.5-57.9c0,0-73.8-66.8-76.7-71
			c-2.9-4.2-3.2-3.4-4.8-6.9C947.4,498.3,922.1,447.3,922.1,447.3z"/>
		<path class="st10" d="M1121.9,447.5l39.7,8.3l-62,177.3l-69.1-53.2c0,0,36-30.4,41.1-37.7S1117.8,456.5,1121.9,447.5z"/>
		
			<rect x="823.3" y="731" transform="matrix(0.9963 -8.589959e-02 8.589959e-02 0.9963 -72.1801 74.1402)" width="4.1" height="289.6"/>
		<rect x="1242.2" y="737.5" transform="matrix(0.9864 -0.1643 0.1643 0.9864 -127.5996 216.3172)" width="4.1" height="284.5"/>
		
			<rect x="815.7" y="708.8" transform="matrix(9.969727e-02 -0.995 0.995 9.969727e-02 45.7479 1472.3076)" width="41.6" height="4.1"/>
		<polygon points="823.9,749.7 772.8,697.9 775.8,695 826.9,746.8 		"/>
		<rect x="1200.7" y="702.1" transform="matrix(0.6195 -0.785 0.785 0.6195 -111.5919 1220.0756)" width="4.1" height="46.1"/>
		<rect x="1211.4" y="703.7" transform="matrix(0.1837 -0.983 0.983 0.1837 308.8773 1783.4192)" width="33.7" height="4.1"/>
		<rect x="1019.1" y="808.8" transform="matrix(0.5915 -0.8063 0.8063 0.5915 -309.8144 1191.7028)" width="4.1" height="185.7"/>
		<rect x="854.1" y="537.8" transform="matrix(0.8763 -0.4817 0.4817 0.8763 -162.5013 481.3206)" width="4.1" height="38.7"/>
		<rect x="851.8" y="573.8" transform="matrix(0.9595 -0.2818 0.2818 0.9595 -129.3847 264.2487)" width="4.1" height="16.2"/>
		<rect x="1231.3" y="502.6" transform="matrix(0.4363 -0.8998 0.8998 0.4363 218.1441 1408.6547)" width="4.1" height="55.3"/>
		<rect x="1233.9" y="534.9" transform="matrix(0.7174 -0.6966 0.6966 0.7174 -36.3389 1017.4515)" width="4.1" height="37.2"/>
		<rect x="1013.8" y="723.8" transform="matrix(0.8816 -0.4721 0.4721 0.8816 -226.7167 566.6151)" width="4.1" height="22.6"/>
		<rect x="1070" y="610.5" transform="matrix(0.6606 -0.7507 0.7507 0.6606 -111.771 1019.8201)" width="4.1" height="46"/>
		<polygon class="st18" points="970.2,60.4 969.5,58.4 997.8,48.7 998.5,50.7 		"/>
		
			<rect x="1002.2" y="57.6" transform="matrix(0.9287 -0.3707 0.3707 0.9287 50.4503 379.8474)" class="st18" width="22.3" height="2.1"/>
		<polygon class="st18" points="1064.6,59.5 1045.9,45.7 1047.1,44 1065.8,57.9 		"/>
		
			<rect x="1116.6" y="88.8" transform="matrix(0.8321 -0.5546 0.5546 0.8321 132.8715 636.4518)" class="st18" width="2.1" height="19.9"/>
		
			<rect x="1118.4" y="108.1" transform="matrix(0.8788 -0.4772 0.4772 0.8788 77.4803 548.8966)" class="st18" width="2.1" height="27.5"/>
		<rect x="1138.7" y="201" class="st18" width="2.1" height="32.5"/>
		
			<rect x="886.3" y="104.6" transform="matrix(0.5384 -0.8427 0.8427 0.5384 326.898 808.1096)" class="st18" width="29.5" height="2.1"/>
		<polygon class="st18" points="887.8,150.4 886,149.4 900.2,121.4 902,122.4 		"/>
		<polygon class="st18" points="883.1,195.6 881,195.4 883.8,169.8 885.9,170 		"/>
		
			<rect x="1009.5" y="386.2" transform="matrix(3.755974e-02 -0.9993 0.9993 3.755974e-02 573.8417 1395.8208)" class="st9" width="4.1" height="27.6"/>
		<rect x="1007.1" y="283.5" class="st9" width="23.7" height="4.1"/>
		<polygon class="st9" points="1030.1,268.2 1026.3,191.4 1028.4,191.3 1032.1,268.1 		"/>
		<rect x="942.2" y="211.4" class="st9" width="48.7" height="2.1"/>
		<rect x="957.7" y="222.1" class="st9" width="19.7" height="4.1"/>
		<rect x="1066.6" y="222.1" class="st9" width="19.7" height="4.1"/>
		<rect x="1055.8" y="211.4" class="st9" width="45.9" height="2.1"/>
		<polygon class="st9" points="1040.6,349.4 994.5,349.4 974.3,330.7 977.1,327.7 996.1,345.3 1040.6,345.3 		"/>
		<polygon class="st9" points="947.3,316.6 925,266.7 925.9,266.3 948.3,316.2 		"/>
		
			<rect x="1065.7" y="293.6" transform="matrix(0.3443 -0.9389 0.9389 0.3443 439.8816 1218.0641)" class="st9" width="52.5" height="1"/>
		<polygon class="st9" points="932.1,203.6 929.4,200.5 961.6,172.5 994,172.5 994,176.7 963.2,176.7 		"/>
		<polygon class="st9" points="1110.7,199.4 1088.5,176.7 1052.6,176.7 1052.6,172.5 1090.2,172.5 1113.6,196.5 		"/>
		
			<rect x="1071.9" y="412.6" transform="matrix(0.9859 -0.1675 0.1675 0.9859 -59.9906 186.2508)" class="st9" width="4.1" height="72.2"/>
		
			<rect x="1058.6" y="454.3" transform="matrix(0.9844 -0.1757 0.1757 0.9844 -66.7728 193.7475)" class="st9" width="4.1" height="39.3"/>
		
			<rect x="1011.9" y="900.3" transform="matrix(0.5174 -0.8557 0.8557 0.5174 -325.6716 1327.2806)" class="st0" width="4.1" height="104.2"/>
		
			<rect x="1124.3" y="868.7" transform="matrix(0.3609 -0.9326 0.9326 0.3609 -87.5174 1613.902)" class="st0" width="19.2" height="4.2"/>
		
			<rect x="727.2" y="856.3" transform="matrix(0.8944 -0.4472 0.4472 0.8944 -319.4171 419.7334)" class="st0" width="4.1" height="60.3"/>
		
			<rect x="719.5" y="889.6" transform="matrix(0.8742 -0.4856 0.4856 0.8742 -348.9875 464.3652)" class="st0" width="4.1" height="32"/>
	</g>
</g>
</svg>
